<svg width="34" height="34" viewBox="0 0 34 34" fill="none" xmlns="http://www.w3.org/2000/svg">
<path d="M8.09137 21.8591L11.1286 22.0735C11.5887 22.1017 12.0051 22.5054 12.0477 22.9644L12.3565 25.9934C12.5563 26.5631 13.2182 26.8286 13.7655 26.5514L15.0071 25.9026C15.3088 25.7494 15.5569 25.3354 15.5516 24.996L15.5086 21.7789C15.4979 21.5457 15.6272 21.2255 15.7873 21.0603L17.7709 19.0139C18.0633 18.7123 18.4251 18.7845 18.5937 19.1708L20.6438 24.1104C20.967 24.8833 21.7047 25.0274 22.2893 24.4243L23.1872 23.498C23.6535 23.0169 23.8304 22.116 23.5662 21.4978L21.2297 15.8767C21.1636 15.715 21.2092 15.4668 21.3345 15.3376L23.4225 13.1835C24.0767 12.5085 24.3539 11.2312 24.05 10.3378C23.939 10.0213 23.6877 9.77773 23.3679 9.67663C22.4654 9.40075 21.1904 9.7247 20.5362 10.3997L18.4482 12.5538C18.3229 12.683 18.0762 12.7364 17.9126 12.6753L12.2286 10.522C11.6094 10.27 10.7145 10.4749 10.2481 10.956L9.3503 11.8823C8.76566 12.4854 8.93266 13.2183 9.71523 13.5173L14.7163 15.4124C15.1075 15.5548 15.1911 15.9283 14.8988 16.2299L12.9152 18.2763C12.7551 18.4415 12.439 18.5807 12.2128 18.5843L8.99595 18.6415C8.65658 18.6468 8.25743 18.9005 8.10673 19.214L7.49698 20.4752C7.22255 21.017 7.50157 21.6774 8.09137 21.8591Z" stroke="#393939" stroke-width="1.5" stroke-linecap="round" stroke-linejoin="round"/>
</svg>
