<svg width="14" height="14" viewBox="0 0 14 14" fill="none" xmlns="http://www.w3.org/2000/svg">
<path d="M1.16406 12.8333H12.8307" stroke="#1E1E1E" stroke-width="0.875" stroke-miterlimit="10" stroke-linecap="round" stroke-linejoin="round"/>
<path d="M1.71875 12.8333L1.74792 5.81581C1.74792 5.45997 1.91708 5.12167 2.19708 4.9L6.28042 1.72083C6.70042 1.39416 7.28958 1.39416 7.71542 1.72083L11.7988 4.89416C12.0846 5.11583 12.2479 5.45414 12.2479 5.81581V12.8333" stroke="#1E1E1E" stroke-width="0.875" stroke-miterlimit="10" stroke-linejoin="round"/>
<path d="M7.58073 9.91675H6.41406C5.9299 9.91675 5.53906 10.3076 5.53906 10.7917V12.8334H8.45573V10.7917C8.45573 10.3076 8.0649 9.91675 7.58073 9.91675Z" stroke="#1E1E1E" stroke-width="0.875" stroke-miterlimit="10" stroke-linejoin="round"/>
<path d="M5.53906 8.02091H4.3724C4.05156 8.02091 3.78906 7.75841 3.78906 7.43758V6.56258C3.78906 6.24175 4.05156 5.97925 4.3724 5.97925H5.53906C5.8599 5.97925 6.1224 6.24175 6.1224 6.56258V7.43758C6.1224 7.75841 5.8599 8.02091 5.53906 8.02091Z" stroke="#1E1E1E" stroke-width="0.875" stroke-miterlimit="10" stroke-linejoin="round"/>
<path d="M9.625 8.02091H8.45833C8.1375 8.02091 7.875 7.75841 7.875 7.43758V6.56258C7.875 6.24175 8.1375 5.97925 8.45833 5.97925H9.625C9.94583 5.97925 10.2083 6.24175 10.2083 6.56258V7.43758C10.2083 7.75841 9.94583 8.02091 9.625 8.02091Z" stroke="#1E1E1E" stroke-width="0.875" stroke-miterlimit="10" stroke-linejoin="round"/>
<path d="M11.0842 4.08325L11.0667 2.33325H8.5" stroke="#1E1E1E" stroke-width="0.875" stroke-miterlimit="10" stroke-linecap="round" stroke-linejoin="round"/>
</svg>
