<svg width="9" height="14" viewBox="0 0 9 14" fill="none" xmlns="http://www.w3.org/2000/svg">
<path d="M4.43847 2.19751C5.65086 2.19751 6.63592 3.22046 6.63592 4.43285C6.63592 5.64524 5.65086 6.63031 4.43847 6.63031C3.22608 6.63031 2.20312 5.64524 2.20312 4.43285C2.20312 3.22046 3.22608 2.19751 4.43847 2.19751ZM4.43847 3.1068C3.71861 3.1068 3.11242 3.713 3.11242 4.43285C3.11242 5.15271 3.71861 5.72102 4.43847 5.72102C5.15832 5.72102 5.72663 5.15271 5.72663 4.43285C5.72663 3.713 5.15832 3.1068 4.43847 3.1068Z" fill="#181818"/>
<path d="M5.87251 9.66123C6.36504 9.737 6.7818 9.85066 7.12279 10.0022C7.91842 10.2674 8.41095 10.76 8.41095 11.2904C8.41095 11.8208 7.91842 12.3133 7.12279 12.6164C6.40293 12.8438 5.45575 13.0332 4.4328 13.0332C3.37196 13.0332 2.42478 12.8438 1.74281 12.6164C0.947179 12.3133 0.416759 11.8208 0.416759 11.2904C0.416759 10.76 0.947179 10.2674 1.74281 10.0022C2.08379 9.85066 2.50055 9.737 2.9552 9.66123C1.4776 8.18363 0 6.02406 0 4.4328C0 1.97013 1.97013 0 4.4328 0C6.85758 0 8.8656 1.97013 8.8656 4.4328C8.8656 6.06195 7.35011 8.18363 5.87251 9.66123ZM3.63717 10.3432C3.03097 10.419 2.46267 10.5326 2.00802 10.6842C1.51549 10.8736 1.1745 11.1009 1.1745 11.2904C1.1745 11.4798 1.51549 11.7071 2.00802 11.8966C2.61421 12.1239 3.48562 12.2754 4.4328 12.2754C5.37998 12.2754 6.25138 12.1239 6.85758 11.8966C7.35011 11.7071 7.65321 11.4798 7.65321 11.2904C7.65321 11.1009 7.35011 10.8736 6.85758 10.6842C6.40293 10.5326 5.83462 10.419 5.19054 10.3432C4.92533 10.6084 4.66012 10.7978 4.4328 10.9873C4.20548 10.7978 3.94027 10.6084 3.63717 10.3432ZM4.4328 0.909292C2.50055 0.909292 0.909292 2.50055 0.909292 4.4328C0.909292 6.06195 3.18252 8.82771 4.4328 9.85066C5.64519 8.78982 7.95631 6.09983 7.95631 4.4328C7.95631 2.50055 6.36504 0.909292 4.4328 0.909292Z" fill="#181818"/>
</svg>
