<svg width="40" height="39" viewBox="0 0 40 39" fill="none" xmlns="http://www.w3.org/2000/svg">
<path fill-rule="evenodd" clip-rule="evenodd" d="M15.5463 10.9092H25.0893C26.9723 10.9092 28.5106 12.4476 28.5106 14.3305V23.8735C28.5106 25.7565 26.9715 27.2948 25.0893 27.2948H15.5463C13.6634 27.2948 12.125 25.7564 12.125 23.8735V14.3305C12.125 12.4475 13.6634 10.9092 15.5463 10.9092ZM25.4172 13.2345C24.406 13.2345 24.406 14.7708 25.4172 14.7708C26.4285 14.7708 26.4285 13.2345 25.4172 13.2345ZM20.3178 14.0242C17.5133 14.0242 15.2399 16.2981 15.2399 19.1021C15.2399 23.611 20.7172 25.8844 23.9086 22.6928C27.0999 19.5014 24.8267 14.0242 20.3178 14.0242ZM23.1842 16.2357C20.6373 13.6888 16.2637 15.5016 16.2637 19.1021C16.2637 22.7026 20.6373 24.5153 23.1842 21.9684C24.7677 20.3856 24.7677 17.8185 23.1842 16.2357ZM25.0893 11.933H15.5463C14.2287 11.933 13.1488 13.0131 13.1488 14.3305V23.8736C13.1488 25.1912 14.2288 26.2711 15.5463 26.2711H25.0893C26.4069 26.2711 27.4868 25.1911 27.4868 23.8736V14.3305C27.4868 13.013 26.4068 11.933 25.0893 11.933Z" fill="white"/>
<circle cx="19.3939" cy="19.3939" r="19.1515" fill="white" fill-opacity="0.3" stroke="#DEDEDE" stroke-width="0.484848"/>
</svg>
