<svg width="40" height="39" viewBox="0 0 40 39" fill="none" xmlns="http://www.w3.org/2000/svg">
<path d="M27.1162 11.88C27.007 11.8072 26.8979 11.8072 26.7887 11.8436C25.8791 12.2438 24.933 11.9527 24.3872 11.225C24.1325 10.8975 23.987 10.4609 23.987 10.0606C23.987 9.95148 23.9506 9.87871 23.8778 9.80594C23.805 9.73316 23.7323 9.69678 23.6231 9.69678H19.9117C19.6934 9.69678 19.5478 9.84232 19.5478 10.0606V22.9778C19.5478 23.0142 19.5478 23.0142 19.5478 23.0506C19.475 23.7055 18.9656 24.1786 18.3107 24.1786C17.6193 24.1786 17.0372 23.5964 17.0372 22.905C17.0372 22.2501 17.5102 21.7407 18.1651 21.6679C18.3471 21.6315 18.4926 21.486 18.4926 21.304V17.0832C18.4926 16.8649 18.3471 16.7193 18.1288 16.7193C18.1288 16.7193 18.0924 16.7193 18.056 16.7193C14.7084 16.8649 12.125 19.5575 12.125 22.905C12.125 26.3254 14.8904 29.0907 18.3107 29.0907C21.5127 29.0907 24.2053 26.6164 24.46 23.4508C24.4964 23.4144 24.4964 23.3417 24.4964 23.3053V16.2827C25.2969 16.4646 26.1338 16.5374 27.007 16.3919C27.189 16.3555 27.2981 16.2099 27.2981 16.028V12.1711C27.2981 12.0619 27.2253 11.9527 27.1162 11.88ZM26.5704 15.7369C25.7335 15.8097 24.9694 15.7369 24.2053 15.4822C24.0961 15.4458 23.987 15.4822 23.8778 15.5186C23.7686 15.5914 23.7323 15.7005 23.7323 15.8097V23.1597C23.7323 23.1961 23.7323 23.2325 23.6959 23.2689C23.5139 26.107 21.1124 28.363 18.2743 28.363C15.2542 28.363 12.8163 25.9251 12.8163 22.905C12.8163 20.0669 14.9268 17.7382 17.7285 17.4835V21.0129C16.8916 21.2676 16.273 22.0318 16.273 22.905C16.273 23.9966 17.1827 24.9063 18.2743 24.9063C19.2567 24.9063 20.0936 24.1786 20.2392 23.2325C20.2755 23.1961 20.2755 23.1234 20.2755 23.087V10.4245H23.2956C23.3684 10.8975 23.5503 11.2978 23.805 11.6616C24.4236 12.4985 25.5152 12.9352 26.5704 12.6805V15.7369Z" fill="white" stroke="white" stroke-width="0.242424"/>
<circle cx="19.3939" cy="19.3939" r="19.1515" fill="white" fill-opacity="0.3" stroke="#DEDEDE" stroke-width="0.484848"/>
</svg>
