<svg width="40" height="39" viewBox="0 0 40 39" fill="none" xmlns="http://www.w3.org/2000/svg">
<path d="M27.2353 13.5756C27.4115 13.4124 27.4997 13.2127 27.5 12.9767C27.4997 12.7407 27.4115 12.5375 27.2353 12.3671C27.0669 12.2033 26.861 12.1213 26.6176 12.1211C26.3743 12.1213 26.1647 12.2033 25.989 12.3671L20 18.1853L14 12.3671C13.8316 12.2033 13.6257 12.1213 13.3824 12.1211C13.139 12.1213 12.9294 12.2033 12.7537 12.3671C12.5848 12.5375 12.5003 12.7407 12.5 12.9767C12.5003 13.2127 12.5848 13.4124 12.7537 13.5756L18.7537 19.3938L12.7537 25.2013C12.5848 25.3717 12.5003 25.5749 12.5 25.8109C12.5003 26.047 12.5848 26.2466 12.7537 26.4099C12.9294 26.5807 13.139 26.6663 13.3824 26.6665C13.6257 26.6663 13.8316 26.5807 14 26.4099L20 20.6024L25.989 26.4099C26.1647 26.5807 26.3743 26.6663 26.6176 26.6665C26.861 26.6663 27.0669 26.5807 27.2353 26.4099C27.4115 26.2466 27.4997 26.047 27.5 25.8109C27.4997 25.5749 27.4115 25.3717 27.2353 25.2013L21.2463 19.3938L27.2353 13.5756Z" fill="white"/>
<circle cx="19.3939" cy="19.3939" r="19.1515" fill="white" fill-opacity="0.3" stroke="#DEDEDE" stroke-width="0.484848"/>
</svg>
